Coordinates
version=1
nRows=9
nColumns=24
inDegrees=yes

Units are S.I. units (second, meters, Newtons, ...)
Angles are in degrees.

endheader
time	pelvis_tilt	pelvis_list	pelvis_rotation	pelvis_tx	pelvis_ty	pelvis_tz	hip_flexion_r	hip_adduction_r	hip_rotation_r	knee_angle_r	ankle_angle_r	subtalar_angle_r	mtp_angle_r	hip_flexion_l	hip_adduction_l	hip_rotation_l	knee_angle_l	ankle_angle_l	subtalar_angle_l	mtp_angle_l	lumbar_extension	lumbar_bending	lumbar_rotation
      3.58000000	    -17.49952864	     -7.24956552	      1.01883813	     -1.52676575	     -0.02344055	     -0.32003180	     24.32560399	     11.78988140	     -2.38495951	    -23.42258840	      9.42522156	    -14.32894900	     -2.45337756	     34.20827464	     -9.08990662	     -3.27086796	    -62.42734983	     -6.56884520	     -7.94183380	     20.38966298	     23.11951745	      4.34685499	    -14.72722501
      3.58500000	    -17.53863397	     -6.89463403	      0.80029697	     -1.52034052	     -0.02211870	     -0.31993515	     23.46530574	     11.54720668	     -1.96529725	    -22.70864942	      9.38346939	    -14.15937032	     -2.73847139	     34.81942199	     -8.82853293	     -3.66660138	    -61.67129507	     -5.99888700	     -8.02913526	     20.23710704	     23.10627503	      4.10073322	    -14.22337331
      3.59000000	    -17.58160125	     -6.55208427	      0.58863803	     -1.51394132	     -0.02086502	     -0.31985900	     22.61977161	     11.29695674	     -1.59001129	    -21.99833038	      9.33914825	    -13.95529962	     -3.00137500	     35.42029277	     -8.58936188	     -4.06829030	    -60.85267103	     -5.47169113	     -8.10452370	     20.06568830	     23.09405289	      3.86541040	    -13.74178813
      3.59500000	    -17.57274862	     -6.25061531	      0.35943315	     -1.50756251	     -0.01963375	     -0.31977465	     21.71477784	     11.08631818	     -1.20364886	    -21.27501564	      9.29614884	    -13.69188466	     -3.39902136	     35.95195216	     -8.42518890	     -4.50778047	    -59.99017105	     -4.98482250	     -8.19667740	     19.76141260	     23.02177149	      3.68088079	    -13.27743728
      3.60000000	    -17.65028295	     -5.92287538	      0.15428713	     -1.50125081	     -0.01855506	     -0.31972778	     20.94651284	     10.81243434	     -0.95428941	    -20.60032704	      9.24205648	    -13.42629298	     -3.56956924	     36.55620517	     -8.20915708	     -4.89795602	    -59.04515402	     -4.51332685	     -8.22524427	     19.59848640	     23.03571762	      3.45351423	    -12.81398006
      3.60500000	    -17.68708672	     -5.62150313	     -0.07026211	     -1.49494618	     -0.01749874	     -0.31969026	     20.13117333	     10.56157631	     -0.68604782	    -19.91245841	      9.17694909	    -13.11946845	     -3.71349028	     37.09372854	     -8.05062799	     -5.33292347	    -58.04238090	     -4.09252364	     -8.28426981	     19.40746257	     23.00393866	      3.26791987	    -12.36063250
      3.61000000	    -17.71601090	     -5.34075050	     -0.29213706	     -1.48867039	     -0.01651046	     -0.31967339	     19.31954832	     10.31704249	     -0.46034023	    -19.23118216	      9.10353112	    -12.78572772	     -3.81859862	     37.60546851	     -7.92181626	     -5.77171424	    -56.98335989	     -3.69095205	     -8.31345437	     19.20952194	     22.96007858	      3.10020720	    -11.92293839
      3.61500000	    -17.73759306	     -5.08010837	     -0.52114515	     -1.48243151	     -0.01558397	     -0.31965056	     18.51783780	     10.08386392	     -0.27328284	    -18.56675386	      9.01776710	    -12.42467035	     -3.87764857	     38.08687365	     -7.82449090	     -6.21308666	    -55.86403886	     -3.30663009	     -8.31715147	     19.00295232	     22.90318351	      2.95211245	    -11.49600453
      3.62000000	    -17.71620667	     -4.84657176	     -0.74204756	     -1.47621386	     -0.01469056	     -0.31967066	     17.67164022	      9.86365330	     -0.09915562	    -17.89346340	      8.92751129	    -12.03213974	     -3.88041697	     38.50615227	     -7.75962216	     -6.66655447	    -54.69799531	     -2.94350911	     -8.29800091	     18.71271150	     22.79730926	      2.83243584	    -11.09594645
